<?xml version="1.0" encoding="UTF-8"?>
<!DOCTYPE svg PUBLIC "-//W3C//DTD SVG 1.1//EN" "http://www.w3.org/Graphics/SVG/1.1/DTD/svg11.dtd">
<!-- Creator: CorelDRAW 2017 -->
<svg xmlns="http://www.w3.org/2000/svg" xml:space="preserve" width="15.5603mm" height="17.6996mm" version="1.1" style="shape-rendering:geometricPrecision; text-rendering:geometricPrecision; image-rendering:optimizeQuality; fill-rule:evenodd; clip-rule:evenodd"
viewBox="0 0 208.16 236.78"
 xmlns:xlink="http://www.w3.org/1999/xlink">
 <defs>
  <style type="text/css">
   <![CDATA[
    .fil9 {fill:#313D49}
    .fil7 {fill:#607592}
    .fil3 {fill:#7A91B0}
    .fil0 {fill:#7B92B1}
    .fil2 {fill:#8AA6BB}
    .fil5 {fill:#94B4C3}
    .fil8 {fill:#97B4DC}
    .fil1 {fill:#A3C8D0}
    .fil4 {fill:#AACFD5}
    .fil6 {fill:#878786}
   ]]>
  </style>
 </defs>
 <g id="Ebene_x0020_1">
  <metadata id="CorelCorpID_0Corel-Layer"/>
  <path class="fil0" d="M110.72 2.33c-3.21,-1.9 -6.15,-3.33 -10.57,-1.44 -6.84,3.89 -13.76,7.62 -20.6,11.51 4.52,2.6 17.18,9.88 21.22,11.93 1.63,0.73 5.12,0.82 7.22,-0.18 8.05,-4.37 16.81,-9.56 20.51,-11.66 -5.7,-3.59 -11.96,-6.85 -17.79,-10.16z"/>
  <path class="fil1" d="M110.78 214.22c-3.21,-1.9 -6.15,-3.33 -10.57,-1.44 -6.84,3.89 -13.77,7.62 -20.6,11.51 4.52,2.6 17.18,9.88 21.22,11.93 1.63,0.73 5.12,0.81 7.22,-0.18 8.05,-4.37 16.81,-9.56 20.51,-11.66 -5.7,-3.59 -11.96,-6.85 -17.79,-10.16z"/>
  <path class="fil2" d="M24.66 172.06c0.02,-3.73 -0.23,-6.99 -4.09,-9.85 -6.81,-3.94 -13.52,-8.04 -20.33,-11.98 0.04,5.22 0.14,19.82 0.41,24.34 0.19,1.77 1.88,4.83 3.8,6.15 7.83,4.74 16.74,9.69 20.42,11.82 0.22,-6.73 -0.12,-13.78 -0.21,-20.48z"/>
  <path class="fil3" d="M24.66 64.78c0.02,3.73 -0.23,6.99 -4.09,9.85 -6.81,3.94 -13.52,8.04 -20.33,11.98 0.04,-5.22 0.14,-19.82 0.41,-24.34 0.19,-1.77 1.88,-4.83 3.8,-6.15 7.83,-4.74 16.74,-9.69 20.42,-11.82 0.22,6.73 -0.12,13.78 -0.21,20.48z"/>
  <path class="fil4" d="M183.73 172.06c-0.02,-3.73 0.23,-6.99 4.09,-9.85 6.81,-3.94 13.52,-8.04 20.33,-11.98 -0.04,5.22 -0.14,19.82 -0.41,24.34 -0.19,1.77 -1.88,4.83 -3.8,6.15 -7.83,4.74 -16.74,9.69 -20.42,11.82 -0.22,-6.73 0.12,-13.78 0.21,-20.48z"/>
  <path class="fil5" d="M183.73 64.78c-0.02,3.73 0.23,6.99 4.09,9.85 6.81,3.94 13.52,8.04 20.33,11.98 -0.04,-5.22 -0.14,-19.82 -0.41,-24.34 -0.19,-1.77 -1.88,-4.83 -3.8,-6.15 -7.83,-4.74 -16.74,-9.69 -20.42,-11.82 -0.22,6.73 0.12,13.78 0.21,20.48z"/>
  <path class="fil6" d="M99.03 53.68l0 14.55c0,4.14 -1.17,7.45 -3.16,9.94 -2.16,2.96 -3.66,3.67 -7.32,5.91 -2.83,1.54 -5.49,2.96 -8.32,4.73 -5.33,3.19 -10.65,4.38 -16.64,1.66l-1.83 -1.06c-2.5,-1.42 -4.83,-2.72 -7.16,-4.14 -5.66,-3.31 -9.32,-4.61 -11.98,-10.65 -1,-2.25 -1.66,-6.74 -2,-9.35l-3.99 -24.13c-0.33,-1.42 -2,-2.25 -3.49,-1.3l0 32.29c0,4.97 -2.33,7.1 -5.49,8.99 -3.16,1.78 -6.16,3.55 -9.32,5.32 -2.33,1.42 -15.81,9.34 -18.31,10.53 -0.17,1.89 1.66,3.08 3.5,2.48 1.5,-0.59 3,-1.18 4.66,-1.78l18.97 -7.22c8.82,-3.43 11.65,-4.14 20.14,0.83 2.66,1.54 5.33,3.19 8.15,4.73 3.99,2.25 6.66,4.02 8.65,7.81 0.17,0.36 0.33,0.59 0.5,1.06 0.33,0.47 0.33,0.59 0.5,1.18 0.66,2.01 1,3.43 1,5.8l0 13.72c0,4.14 -1.33,7.33 -3.33,10.06 -2,2.72 -3.99,3.78 -7.49,5.68 -2.83,1.66 -5.49,3.31 -8.32,4.97 -3,1.78 -5.66,3.19 -10.15,3.19 -3.83,0 -7.16,-1.54 -9.99,-2.72l-23.13 -8.75c-2,-0.83 -3.66,0.35 -3.66,2.25 1.5,0.95 3,1.78 4.49,2.6l22.97 13.25c1.83,1.06 2.83,1.66 3.99,3.31 1,1.54 1.66,3.31 1.66,5.68l0 32.41c1.33,0.95 2.83,0.12 3.49,-0.95 0.5,-1.06 2.16,-13.01 2.33,-14.55 0.5,-3.08 1.17,-6.62 1.66,-9.7 1.17,-6.51 1.33,-11.59 6.66,-15.85 2,-1.54 11.48,-6.86 14.31,-8.4 2.5,-1.42 5.33,-2.72 8.99,-2.72 4.33,0 6.82,1.66 9.82,3.31 2.66,1.54 5.33,3.08 8.32,4.73 3.5,2.01 5.16,2.96 7.32,5.8 3.49,4.61 3,10.41 3,15.97l0 8.52c0,4.61 -1.66,8.16 -3.83,10.65 -2.16,2.48 -21.97,18.1 -24.13,19.87 -0.67,0.47 -1.5,1.06 -1.66,1.77 -0.5,1.06 -0.17,2.13 0.5,2.72 0.67,0.71 1.5,-0.12 2.16,-0.47 1,-0.47 1.66,-0.95 2.5,-1.42 3.16,-1.77 6.16,-3.55 9.32,-5.32 3.16,-1.89 6.16,-3.67 9.32,-5.44 2.66,-1.54 7.16,-4.61 10.48,-4.61 3,0 6.66,2.6 8.82,3.78 3.33,2.01 23.47,13.96 24.13,13.84 0.83,-0.35 1.5,-1.3 1.17,-2.6 -0.17,-1.06 -1.17,-1.66 -1.83,-2.25l-13.81 -11.24c-1.5,-1.18 -3,-2.37 -4.49,-3.67 -5.66,-4.49 -9.82,-7.57 -9.82,-16.32l0.17 -14.43c0,-3.79 1.33,-7.22 3.16,-9.58 2.16,-2.72 3.99,-3.67 7.32,-5.68 2.83,-1.54 5.49,-3.08 8.32,-4.73 3,-1.66 5.49,-3.19 9.82,-3.19 3.49,0 6.32,1.18 8.82,2.6 2.33,1.42 4.83,2.84 7.16,4.14 5.33,3.19 9.49,4.73 11.81,10.76 1,2.25 1.66,6.51 2,9.35 0.33,3.31 1,6.51 1.5,9.7 0.33,1.66 2,13.37 2.5,14.55 0.5,1.18 2.16,2.01 3.49,1.06l0 -32.41c0,-4.49 2,-6.86 5.49,-8.87 3,-1.77 6.16,-3.67 9.32,-5.32 3,-1.78 5.99,-3.55 9.15,-5.32 3,-1.78 5.99,-3.43 9.15,-5.32 0,-1.89 -1.66,-3.08 -3.49,-2.37 -7.82,2.84 -15.48,6.15 -23.3,8.87 -3.16,1.18 -6.16,2.72 -10.32,2.72 -4.49,0 -6.99,-1.54 -9.82,-3.19 -2.83,-1.66 -5.49,-3.19 -8.32,-4.85 -3.16,-1.89 -5.49,-3.08 -7.32,-5.68 -2,-2.48 -3.5,-5.8 -3.5,-9.82l0 -14.55c0,-4.02 1.5,-7.22 3.33,-9.7 2,-2.72 3.99,-3.79 7.32,-5.68 2.83,-1.66 5.49,-3.19 8.15,-4.73 8.49,-4.85 11.15,-4.38 19.97,-0.95 6.32,2.48 12.65,4.73 18.8,7.22 1.66,0.59 3.16,1.18 4.83,1.77 2,0.71 3.66,-0.35 3.66,-2.37 -3,-1.3 -15.14,-8.64 -18.31,-10.41 -3.16,-1.89 -5.99,-3.55 -9.15,-5.32 -6.32,-3.55 -5.66,-7.22 -5.66,-14.08 0,-9.11 0.17,-18.22 0,-27.33 -1.16,-0.59 -2.33,-0.35 -3.16,0.47 -0.83,0.95 -1.83,9.46 -2.16,11 -0.66,5.09 -1.66,10.29 -2.5,15.38 -1,6.27 -1.16,8.87 -4.83,12.78 -2.33,2.6 -7.32,4.85 -10.82,6.98 -3.66,2.13 -7.82,5.09 -12.15,5.44 -6.16,0.47 -9.65,-1.89 -13.65,-4.26 -3,-1.78 -8.66,-4.61 -10.98,-6.62 -4.49,-3.9 -5.66,-7.93 -5.66,-13.96l-0.17 -13.84c0,-7.81 4.99,-11.24 9.82,-15.14l18.14 -14.79c0.66,-0.59 1.66,-1.18 2,-2.13 0.33,-1.3 -0.33,-2.48 -1.17,-2.84 -0.67,0 -24.13,13.84 -26.63,15.26 -2.33,1.3 -4.49,2.84 -7.99,2.13 -2.5,-0.35 -5.16,-2.25 -7.16,-3.43 -7.66,-4.38 -15.81,-8.87 -23.3,-13.48 -1.5,-0.83 -2.5,0 -2.33,1.77 0,1.66 3.49,3.9 5.16,5.21l17.31 14.19c2.16,1.66 3.5,2.84 5.16,5.32 0.67,1.18 1,2.13 1.5,3.67 0.5,1.54 0.66,2.96 0.66,4.73z"/>
  <path class="fil7" d="M122.41 135.58c2.99,-1.67 5.48,-3.33 5.96,-7.71 -0.02,-7.22 0.12,-14.43 0.09,-21.65 -4.15,2.38 -15.78,9.04 -19.27,11.3 -1.33,0.95 -2.98,3.68 -3.14,5.81 -0.14,8.4 0.06,17.75 0.07,21.65 5.48,-2.86 10.96,-6.31 16.28,-9.4z"/>
  <path class="fil8" d="M110.22 94.05c-2.93,-1.76 -5.62,-3.1 -9.65,-1.34 -6.25,3.61 -12.58,7.08 -18.82,10.69 4.13,2.42 15.7,9.19 19.39,11.09 1.49,0.68 4.67,0.76 6.6,-0.16 7.35,-4.06 15.36,-8.88 18.74,-10.84 -5.21,-3.33 -10.93,-6.37 -16.25,-9.44z"/>
  <path class="fil9" d="M86.21 135.79c-2.99,-1.67 -5.48,-3.33 -5.96,-7.71 0.02,-7.22 -0.12,-14.43 -0.09,-21.65 4.15,2.38 15.78,9.04 19.27,11.3 1.33,0.95 2.98,3.68 3.14,5.81 0.14,8.4 -0.06,17.74 -0.07,21.65 -5.48,-2.86 -10.96,-6.31 -16.28,-9.4z"/>
 </g>
</svg>
