<svg width="229" height="42" viewBox="0 0 229 42" fill="none" xmlns="http://www.w3.org/2000/svg">
<g clip-path="url(#clip0_93_221)">
<path fill-rule="evenodd" clip-rule="evenodd" d="M21.7803 0.0644013C21.2067 -0.274874 20.6818 -0.530652 19.8923 -0.192433C18.6708 0.501619 17.4335 1.16854 16.212 1.86295C17.0199 2.32765 19.2814 3.62873 20.0036 3.99408C20.2943 4.12443 20.9175 4.13993 21.2941 3.96237C22.7319 3.182 24.2972 2.25472 24.9582 1.87915C23.94 1.2383 22.8221 0.654522 21.7803 0.0644013Z" fill="#7B92B1"/>
<path fill-rule="evenodd" clip-rule="evenodd" d="M21.7912 37.9171C21.218 37.5778 20.693 37.3217 19.9035 37.6599C18.682 38.3543 17.4444 39.0212 16.2233 39.7156C17.0308 40.1803 19.2922 41.4814 20.0148 41.8468C20.3051 41.9771 20.9287 41.9923 21.3054 41.815C22.7431 41.0347 24.3085 40.1074 24.9694 39.7318C23.9512 39.091 22.8333 38.5072 21.7912 37.9171Z" fill="#A3C8D0"/>
<path fill-rule="evenodd" clip-rule="evenodd" d="M6.40588 30.3861C6.40905 29.7199 6.36536 29.1375 5.67483 28.6266C4.45901 27.9227 3.25904 27.191 2.04321 26.4867C2.04955 27.4186 2.06752 30.0274 2.11685 30.8356C2.15102 31.152 2.45225 31.6977 2.7954 31.9338C4.19478 32.7811 5.78511 33.6647 6.44287 34.0455C6.48233 32.8431 6.42209 31.5832 6.40588 30.3861Z" fill="#8AA6BB"/>
<path fill-rule="evenodd" clip-rule="evenodd" d="M6.40588 11.2213C6.40905 11.8876 6.36536 12.4699 5.67483 12.9808C4.45901 13.6847 3.25904 14.4165 2.04321 15.1207C2.04955 14.1889 2.06752 11.58 2.11685 10.7718C2.15102 10.4551 2.45225 9.90969 2.7954 9.67364C4.19478 8.82633 5.78511 7.94274 6.44287 7.56189C6.48233 8.76433 6.42209 10.0242 6.40588 11.2213Z" fill="#7A91B0"/>
<path fill-rule="evenodd" clip-rule="evenodd" d="M34.8229 30.3861C34.8197 29.7199 34.8634 29.1375 35.5535 28.6266C36.7694 27.9227 37.9697 27.191 39.1855 26.4867C39.1792 27.4186 39.1612 30.0274 39.1115 30.8356C39.0777 31.152 38.7761 31.6977 38.433 31.9338C37.0336 32.7811 35.4433 33.6647 34.7855 34.0455C34.746 32.8431 34.8063 31.5832 34.8225 30.3861H34.8229Z" fill="#AACFD5"/>
<path fill-rule="evenodd" clip-rule="evenodd" d="M34.8229 11.2213C34.8197 11.8876 34.8634 12.4699 35.5535 12.9808C36.7694 13.6847 37.9697 14.4165 39.1855 15.1207C39.1792 14.1889 39.1612 11.58 39.1115 10.7718C39.0777 10.4551 38.7761 9.90969 38.433 9.67364C37.0336 8.82633 35.4433 7.94274 34.7855 7.56189C34.746 8.76433 34.8063 10.0242 34.8225 11.2213H34.8229Z" fill="#94B4C3"/>
<path fill-rule="evenodd" clip-rule="evenodd" d="M19.6914 9.23794V11.8373C19.6914 12.5768 19.4832 13.1687 19.1263 13.6126C18.7398 14.1407 18.4724 14.2675 17.8185 14.6692C17.313 14.944 16.8373 15.1976 16.3318 15.5144C15.3805 16.0851 14.4289 16.2961 13.359 15.8103L13.0317 15.6201C12.5856 15.3664 12.1696 15.1339 11.7535 14.8806C10.7427 14.2887 10.0885 14.0565 9.61284 12.9788C9.43422 12.5771 9.31549 11.7742 9.25595 11.3092L8.54252 6.9983C8.48298 6.74464 8.18563 6.59667 7.91823 6.76578V12.5349C7.91823 13.4223 7.5018 13.8025 6.93704 14.1407C6.37229 14.4578 5.83713 14.7749 5.27237 15.0919C4.85594 15.3456 2.44789 16.7612 2.00187 16.9726C1.97227 17.3104 2.29922 17.5218 2.62616 17.4165C2.89357 17.3108 3.16132 17.2051 3.45867 17.0994L6.84791 15.8103C8.42379 15.1976 8.92901 15.0708 10.4454 15.9583C10.9213 16.2331 11.3966 16.529 11.9022 16.8035C12.6156 17.2051 13.0912 17.5222 13.4481 18.1983C13.4777 18.2617 13.5076 18.304 13.5372 18.3885C13.5968 18.4731 13.5968 18.4942 13.6267 18.5999C13.7455 18.9593 13.805 19.2126 13.805 19.6353V22.0864C13.805 22.8259 13.5672 23.3966 13.2103 23.8828C12.8534 24.3686 12.4969 24.5589 11.8726 24.8971C11.367 25.193 10.8914 25.489 10.3858 25.7846C9.85065 26.1017 9.37503 26.3553 8.57247 26.3553C7.88863 26.3553 7.29393 26.0805 6.78837 25.8691L2.65611 24.3052C2.29922 24.1573 2.00187 24.3686 2.00187 24.7069C2.26962 24.876 2.53703 25.0239 2.80443 25.1719L6.90709 27.5387C7.23404 27.7286 7.41266 27.8347 7.62052 28.1306C7.79879 28.4051 7.91787 28.7225 7.91787 29.1449V34.9352C8.15568 35.1043 8.42344 34.9563 8.54217 34.766C8.6313 34.5758 8.92865 32.4415 8.9586 32.1667C9.04774 31.6174 9.16682 30.9833 9.25595 30.434C9.46417 29.2718 9.49376 28.3631 10.445 27.6025C10.8019 27.3277 12.4965 26.3768 13.0017 26.1024C13.4477 25.8487 13.953 25.6162 14.6072 25.6162C15.3802 25.6162 15.8258 25.9121 16.3614 26.2081C16.837 26.4825 17.3126 26.7573 17.8478 27.0533C18.4721 27.4126 18.7694 27.5814 19.1559 28.0887C19.7802 28.9127 19.6911 29.9482 19.6911 30.9417V32.463C19.6911 33.287 19.3937 33.9212 19.0072 34.3651C18.6207 34.809 15.0828 37.5983 14.6963 37.9154C14.5773 37.9996 14.4286 38.1056 14.399 38.2321C14.3099 38.4223 14.3694 38.6126 14.4881 38.7183C14.6072 38.8451 14.7559 38.6971 14.875 38.6337C15.0532 38.5495 15.1723 38.4646 15.321 38.38C15.8857 38.0633 16.4209 37.7459 16.9857 37.4292C17.5508 37.0909 18.0856 36.7742 18.6507 36.4571C19.1263 36.1827 19.9289 35.6331 20.5236 35.6331C21.0587 35.6331 21.713 36.0978 22.0994 36.3092C22.6942 36.6685 26.2912 38.8028 26.4103 38.7817C26.559 38.7183 26.6777 38.5495 26.6185 38.317C26.5886 38.1267 26.4103 38.021 26.2912 37.9154L23.8237 35.9079C23.5563 35.6965 23.2885 35.4855 23.0211 35.2529C22.0103 34.45 21.2669 33.9004 21.2669 32.3369L21.2965 29.7586C21.2965 29.0822 21.5343 28.4695 21.8616 28.0468C22.2481 27.5606 22.5751 27.3918 23.1698 27.0325C23.675 26.758 24.1506 26.4832 24.6562 26.1873C25.1913 25.8913 25.637 25.6169 26.4103 25.6169C27.0346 25.6169 27.5398 25.8283 27.9859 26.0816C28.4023 26.3352 28.848 26.5886 29.2644 26.8211C30.2156 27.3918 30.959 27.6663 31.3751 28.744C31.5537 29.1456 31.6724 29.9063 31.732 30.4136C31.7915 31.0055 31.9106 31.5759 31.9997 32.1463C32.0593 32.4422 32.3566 34.5342 32.4458 34.7456C32.5349 34.957 32.8323 35.105 33.0701 34.9355V29.1453C33.0701 28.3424 33.427 27.9196 34.0512 27.5602C34.5864 27.2435 35.1512 26.9053 35.7163 26.6093C36.2514 26.2923 36.7862 25.9752 37.3513 25.6585C37.8865 25.3414 38.4213 25.0454 38.9864 24.7072C38.9864 24.369 38.6891 24.158 38.3621 24.2848C36.9649 24.7918 35.5972 25.3837 34.1999 25.8698C33.6348 26.0812 33.1 26.356 32.3566 26.356C31.5541 26.356 31.108 26.0812 30.6025 25.7853C30.0969 25.4893 29.6213 25.2149 29.1161 24.919C28.551 24.5807 28.1349 24.3693 27.8079 23.9046C27.4511 23.4607 27.1836 22.8692 27.1836 22.1505V19.5515C27.1836 18.8328 27.4514 18.2624 27.7784 17.8188C28.1352 17.3326 28.4918 17.1424 29.0865 16.8045C29.592 16.5086 30.0677 16.2341 30.5433 15.9593C32.0596 15.093 32.5353 15.1776 34.1111 15.7902C35.2406 16.2341 36.3705 16.6354 37.4704 17.0793C37.7678 17.185 38.0355 17.2907 38.3325 17.3961C38.6894 17.5229 38.9868 17.3326 38.9868 16.9736C38.4516 16.7411 36.2814 15.4309 35.7166 15.1138C35.1515 14.7756 34.6463 14.4796 34.0812 14.1629C32.9517 13.5287 33.0704 12.8738 33.0704 11.6481C33.0704 10.0208 33.1004 8.39381 33.0704 6.76648C32.8626 6.66079 32.6543 6.70307 32.5057 6.85104C32.357 7.02015 32.1784 8.54142 32.1188 8.81623C32.0001 9.72519 31.8215 10.6549 31.6728 11.5635C31.4945 12.6835 31.4649 13.1486 30.8107 13.8458C30.3943 14.3109 29.5026 14.7125 28.8779 15.0926C28.2237 15.4728 27.4806 16.0013 26.7077 16.0647C25.6078 16.1492 24.9831 15.7265 24.27 15.304C23.7349 14.987 22.7237 14.48 22.3077 14.1206C21.5051 13.4234 21.2969 12.7047 21.2969 11.627L21.2673 9.15444C21.2673 7.75965 22.159 7.14698 23.0214 6.4494L26.262 3.80813C26.3807 3.70243 26.5594 3.59674 26.6189 3.42763C26.6781 3.19546 26.5594 2.98372 26.4107 2.92065C26.2916 2.92065 22.0998 5.39317 21.6538 5.64684C21.2373 5.87936 20.8512 6.15381 20.2266 6.02733C19.7805 5.96392 19.3049 5.6257 18.9484 5.41431C17.5807 4.63253 16.1243 3.82926 14.7862 3.00556C14.5188 2.85759 14.3402 3.00556 14.3701 3.32229C14.3701 3.61823 14.9944 4.01951 15.2917 4.25204L18.3836 6.78797C18.7705 7.08391 19.0079 7.2953 19.3053 7.73921C19.4244 7.9506 19.4835 8.11936 19.573 8.39416C19.6622 8.66861 19.6918 8.92262 19.6918 9.23935L19.6914 9.23794Z" fill="#878786"/>
<path fill-rule="evenodd" clip-rule="evenodd" d="M23.8671 23.8683C24.4012 23.5706 24.8461 23.2732 24.9328 22.4911C24.9286 21.202 24.9539 19.9129 24.9494 18.6238C24.2077 19.049 22.1305 20.2395 21.5073 20.6432C21.2698 20.813 20.9742 21.2999 20.946 21.6804C20.9214 23.1809 20.957 24.8505 20.9591 25.5477C21.9385 25.0372 22.9176 24.4211 23.8671 23.8686V23.8683Z" fill="#607592"/>
<path fill-rule="evenodd" clip-rule="evenodd" d="M21.6913 16.4497C21.1674 16.1348 20.6879 15.8966 19.9667 16.2108C18.8506 16.8559 17.72 17.4756 16.6039 18.1211C17.342 18.553 19.4079 19.7621 20.0682 20.1014C20.3338 20.223 20.9031 20.2367 21.2473 20.0722C22.5611 19.3468 23.9911 18.4854 24.595 18.1362C23.6649 17.5408 22.6432 16.9986 21.6913 16.4497Z" fill="#97B4DC"/>
<path fill-rule="evenodd" clip-rule="evenodd" d="M17.4008 23.9056C16.8667 23.6083 16.4218 23.3106 16.3351 22.5285C16.3393 21.2394 16.314 19.9503 16.3185 18.6615C17.0602 19.0867 19.1374 20.2768 19.7606 20.6806C19.9981 20.8504 20.2937 21.3377 20.3219 21.7181C20.3465 23.2186 20.3109 24.8879 20.3088 25.5851C19.3294 25.0746 18.3503 24.4584 17.4008 23.906V23.9056Z" fill="#345778"/>
<path d="M61.0703 23.0889L58.7219 16.0439L56.3736 23.0889H61.0703ZM64.3144 27.8824C64.3144 28.415 64.048 28.6813 63.5154 28.6813C63.1281 28.6813 62.8739 28.4998 62.7528 28.1366L61.6029 24.6868H55.841L54.691 28.1366C54.57 28.4998 54.3158 28.6813 53.9284 28.6813C53.3958 28.6813 53.1295 28.415 53.1295 27.8824C53.1295 27.7856 53.1416 27.7009 53.1658 27.6282L57.923 13.3446C58.0683 12.9209 58.3346 12.703 58.7219 12.703C59.1093 12.703 59.3756 12.9088 59.5087 13.3203L64.278 27.6282C64.3022 27.7009 64.3144 27.7856 64.3144 27.8824Z" fill="#FEFEFE"/>
<path d="M76.2431 27.8824V18.2954C76.2431 17.7628 76.5094 17.4965 77.042 17.4965C77.5746 17.4965 77.8409 17.7628 77.8409 18.2954V27.8824C77.8409 28.415 77.5746 28.6813 77.042 28.6813C76.5094 28.6813 76.2431 28.415 76.2431 27.8824ZM76.2431 14.3008V13.5019C76.2431 12.9693 76.5094 12.703 77.042 12.703C77.5746 12.703 77.8409 12.9693 77.8409 13.5019V14.3008C77.8409 14.8334 77.5746 15.0998 77.042 15.0998C76.5094 15.0998 76.2431 14.8334 76.2431 14.3008Z" fill="#FEFEFE"/>
<path d="M93.7642 27.8824V19.0943H91.7548C91.2222 19.0943 90.9559 18.8159 90.9559 18.2833V18.2954C90.9559 17.7628 91.2222 17.4965 91.7548 17.4965H93.7642V13.5019C93.7642 12.9693 94.0305 12.703 94.5631 12.703C95.0958 12.703 95.3621 12.9693 95.3621 13.5019V17.4965H97.7588C98.2914 17.4965 98.5577 17.7628 98.5577 18.2954C98.5577 18.828 98.2914 19.0943 97.7588 19.0943H95.3621V27.8824C95.3621 28.415 95.0958 28.6813 94.5631 28.6813C94.0305 28.6813 93.7642 28.415 93.7642 27.8824Z" fill="#FEFEFE"/>
<path d="M109.688 27.8824V13.5019C109.688 12.9693 109.954 12.703 110.486 12.703C111.019 12.703 111.285 12.9693 111.285 13.5019V17.4965H114.481C115.365 17.4965 116.115 17.7991 116.745 18.4165C117.362 19.0338 117.677 19.7722 117.677 20.6316V27.8824C117.677 28.415 117.41 28.6813 116.878 28.6813C116.345 28.6813 116.079 28.415 116.079 27.8824V20.6922C116.079 20.2443 115.922 19.8569 115.619 19.5543C115.316 19.2517 114.929 19.0943 114.481 19.0943H111.285V27.8824C111.285 28.415 111.019 28.6813 110.486 28.6813C109.954 28.6813 109.688 28.415 109.688 27.8824Z" fill="#FEFEFE"/>
<path d="M132.003 19.0943C131.337 19.0943 130.78 19.3243 130.308 19.7964C129.836 20.2685 129.606 20.8253 129.606 21.4911V22.29H134.399V21.4911C134.399 20.8253 134.169 20.2685 133.697 19.7964C133.225 19.3243 132.668 19.0943 132.003 19.0943ZM135.997 23.8878H129.606V25.4857C129.606 25.9214 129.763 26.2967 130.078 26.6114C130.393 26.9261 130.768 27.0835 131.204 27.0835H135.198C135.731 27.0835 135.997 27.3498 135.997 27.8824C135.997 28.415 135.731 28.6813 135.198 28.6813H131.204C130.308 28.6813 129.557 28.3666 128.94 27.7493C128.323 27.1319 128.008 26.3814 128.008 25.4857V21.4911C128.008 20.3896 128.395 19.4454 129.182 18.6586C129.957 17.8839 130.901 17.4965 132.003 17.4965C133.128 17.4965 134.073 17.8839 134.847 18.6465C135.61 19.4212 135.997 20.3653 135.997 21.4911V23.8878Z" fill="#FEFEFE"/>
<path d="M147.127 27.8824V18.2954C147.127 17.7628 147.393 17.4965 147.926 17.4965H152.719C153.252 17.4965 153.518 17.7628 153.518 18.2954V19.8933C153.518 20.4259 153.252 20.6922 152.719 20.6922C152.187 20.6922 151.921 20.4259 151.921 19.8933V19.0943H148.725V27.8824C148.725 28.415 148.459 28.6813 147.926 28.6813C147.393 28.6813 147.127 28.415 147.127 27.8824Z" fill="#FEFEFE"/>
<path d="M167.844 27.8824V18.2954C167.844 17.7628 168.11 17.4965 168.643 17.4965C169.175 17.4965 169.442 17.7628 169.442 18.2954V27.8824C169.442 28.415 169.175 28.6813 168.643 28.6813C168.11 28.6813 167.844 28.415 167.844 27.8824ZM167.844 14.3008V13.5019C167.844 12.9693 168.11 12.703 168.643 12.703C169.175 12.703 169.442 12.9693 169.442 13.5019V14.3008C169.442 14.8334 169.175 15.0998 168.643 15.0998C168.11 15.0998 167.844 14.8334 167.844 14.3008Z" fill="#FEFEFE"/>
<path d="M185.365 20.6922V25.4857C185.365 25.9214 185.523 26.2967 185.837 26.6114C186.152 26.9261 186.527 27.0835 186.963 27.0835H189.36C189.893 27.0835 190.159 27.3498 190.159 27.8824C190.159 28.415 189.893 28.6813 189.36 28.6813H186.963C186.067 28.6813 185.317 28.3666 184.7 27.7493C184.082 27.1319 183.768 26.3814 183.768 25.4857V20.6922C183.768 19.7964 184.082 19.0338 184.7 18.4165C185.317 17.7991 186.067 17.4965 186.963 17.4965H189.36C189.893 17.4965 190.159 17.7628 190.159 18.2954C190.159 18.828 189.893 19.0943 189.36 19.0943H186.963C186.515 19.0943 186.14 19.2517 185.837 19.5543C185.523 19.869 185.365 20.2443 185.365 20.6922Z" fill="#FEFEFE"/>
<path d="M201.289 24.6868V21.4911C201.289 20.3896 201.676 19.4454 202.463 18.6586C203.238 17.8839 204.182 17.4965 205.283 17.4965C206.409 17.4965 207.353 17.8839 208.128 18.6465C208.891 19.4212 209.278 20.3653 209.278 21.4911V24.6868C209.278 25.7883 208.891 26.7325 208.116 27.5072C207.329 28.294 206.385 28.6813 205.283 28.6813C204.182 28.6813 203.238 28.294 202.463 27.5072C201.676 26.7325 201.289 25.7883 201.289 24.6868ZM207.68 24.6868V21.4911C207.68 20.8253 207.45 20.2685 206.978 19.7964C206.506 19.3243 205.949 19.0943 205.283 19.0943C204.618 19.0943 204.061 19.3243 203.589 19.7964C203.117 20.2685 202.887 20.8253 202.887 21.4911V24.6868C202.887 25.3525 203.117 25.9214 203.589 26.3814C204.049 26.8535 204.618 27.0835 205.283 27.0835C205.949 27.0835 206.506 26.8535 206.978 26.3814C207.45 25.9093 207.68 25.3525 207.68 24.6868Z" fill="#FEFEFE"/>
<path d="M219.609 27.8824V18.2954C219.609 17.7628 219.875 17.4965 220.408 17.4965H224.402C225.298 17.4965 226.061 17.7991 226.678 18.4165C227.295 19.0338 227.598 19.7964 227.598 20.6922V27.8824C227.598 28.415 227.332 28.6813 226.799 28.6813C226.266 28.6813 226 28.415 226 27.8824V20.6922C226 20.2443 225.843 19.8569 225.54 19.5543C225.238 19.2517 224.85 19.0943 224.402 19.0943H221.207V27.8824C221.207 28.415 220.94 28.6813 220.408 28.6813C219.875 28.6813 219.609 28.415 219.609 27.8824Z" fill="#FEFEFE"/>
</g>
<defs>
<clipPath id="clip0_93_221">
<rect width="229" height="42" fill="white"/>
</clipPath>
</defs>
</svg>
